HIERARCHY
ROOT hip
{
  OFFSET 0 0 0
  CHANNELS 6 Xposition Yposition Zposition Zrotation Xrotation Yrotation
  JOINT abdomen
  {
    OFFSET 0.0706196 7.23992 -0.013175
    CHANNELS 3 Zrotation Xrotation Yrotation
    JOINT chest
    {
      OFFSET 0.00039959 16.5318 -0.76556
      CHANNELS 3 Zrotation Xrotation Yrotation
      JOINT neck
      {
        OFFSET -1.19209e-005 36.467 -4.32768
        CHANNELS 3 Zrotation Xrotation Yrotation
        JOINT head
        {
          OFFSET 0 10.4509 2.78238
          CHANNELS 3 Zrotation Xrotation Yrotation
          End Site
          {
            OFFSET 0 13.6483 2.8643
          }
        }
      }
      JOINT lCollar
      {
        OFFSET 3.05824 30.965 -6.75914
        CHANNELS 3 Zrotation Xrotation Yrotation
        JOINT lShldr
        {
          OFFSET 15.0645 0.0677185 -0.441113
          CHANNELS 3 Zrotation Xrotation Yrotation
          JOINT lForeArm
          {
            OFFSET 29.6373 0.773624 0.573946
            CHANNELS 3 Zrotation Xrotation Yrotation
            JOINT lHand
            {
              OFFSET 27.1742 0.78167 2.11782
              CHANNELS 3 Zrotation Xrotation Yrotation
              End Site
              {
                OFFSET 8.97646 -0.320343 0.148497
              }
            }
          }
        }
      }
      JOINT rCollar
      {
        OFFSET -3.05827 30.965 -6.75913
        CHANNELS 3 Zrotation Xrotation Yrotation
        JOINT rShldr
        {
          OFFSET -15.0646 0.0677185 -0.441067
          CHANNELS 3 Zrotation Xrotation Yrotation
          JOINT rForeArm
          {
            OFFSET -29.6374 0.773643 0.574036
            CHANNELS 3 Zrotation Xrotation Yrotation
            JOINT rHand
            {
              OFFSET -27.1742 0.781677 2.11789
              CHANNELS 3 Zrotation Xrotation Yrotation
              End Site
              {
                OFFSET -8.97647 -0.320343 0.148525
              }
            }
          }
        }
      }
    }
  }
  JOINT lThigh
  {
    OFFSET 8.73786 0 -1.00136e-005
    CHANNELS 3 Zrotation Xrotation Yrotation
    JOINT lShin
    {
      OFFSET -0.218641 -43.6387 -2.09099
      CHANNELS 3 Zrotation Xrotation Yrotation
      JOINT lFoot
      {
        OFFSET -0.769395 -43.3017 -5.75581
        CHANNELS 3 Zrotation Xrotation Yrotation
        JOINT lToe
        {
          OFFSET 2.4699 -8.89869 14.0045
          CHANNELS 3 Zrotation Xrotation Yrotation
          End Site
          {
            OFFSET -0.0326996 -0.013798 4.5702
          }
        }
      }
    }
  }
  JOINT rThigh
  {
    OFFSET -8.73786 0 1.62125e-005
    CHANNELS 3 Zrotation Xrotation Yrotation
    JOINT rShin
    {
      OFFSET 0.218546 -43.6387 -2.09099
      CHANNELS 3 Zrotation Xrotation Yrotation
      JOINT rFoot
      {
        OFFSET 0.769259 -43.3017 -5.75565
        CHANNELS 3 Zrotation Xrotation Yrotation
        JOINT rToe
        {
          OFFSET -2.37053 -8.88459 14.0306
          CHANNELS 3 Zrotation Xrotation Yrotation
          End Site
          {
            OFFSET 0.0327187 0 4.57023
          }
        }
      }
    }
  }
}
MOTION
Frames:	11
Frame Time:	0.0333333
-4.903 97.691 -9.375 0.753047 -3.98086 2.5343 0.00185613 2.61602 -0.0405592 2.02741 8.83506 -0.945381 -6.83019e-006 -8.53774e-007 -1.60083e-006 -2.56341 -1.4848 0.558347 -9.37391 -0.1244 -1.74221 -65.7313 6.23337 -4.92478 0.629695 0.260332 -13.1401 5.03679 -4.96683 0.123256 9.37389 -0.124377 1.7422 68.3678 -3.74674 1.65449 -1.27465 0.369249 25.7534 -5.03679 -4.96688 -0.123265 3.93399 -0.424367 -0.104919 -0.0920252 0.61309 0.00182681 0.524285 6.09433 -1.10444 0.0389737 -0.108849 9.99937 -2.35533 2.08499 -10.0954 -0.0928706 -0.61888 0.000850942 -3.30869 3.53391 1.29913 -2.93411e-006 1.286e-005 -9.99999 
-4.00176 97.6553 -9.20899 0.71465 -3.44094 2.02166 -0.017881 2.61619 -0.0378699 2.04411 8.83826 -0.951329 -1.0857 0.227215 -1.7493 -3.81006 2.6725 -0.930609 -9.91669 -0.157673 -1.63791 -65.9047 4.43426 -4.40905 0.703215 0.280252 -14.606 4.12471 -2.52512 -0.0637295 9.04693 -0.147393 1.53462 68.5286 -5.36163 1.34227 -1.29338 0.370257 26.1143 -4.90633 -4.45054 -0.244708 3.27261 -0.486234 -0.348741 -0.110161 0.733937 0.00230396 0.522498 5.28904 -1.0878 0.0389849 -0.108829 9.99937 -3.23393 1.83293 -9.26133 -0.107579 -0.716815 0.000889989 -2.19228 3.72075 1.24925 1.20633e-005 -5.33609e-006 -9.99999 
-3.04703 97.6149 -9.04386 0.679707 -2.86606 1.4948 -0.0377218 2.61633 -0.0351672 2.06091 8.8415 -0.957311 -2.164 0.487401 -3.49403 -5.07997 6.84744 -2.26077 -10.4969 -0.197955 -1.51795 -66.1052 2.58897 -3.81701 0.785678 0.300211 -16.2386 3.13516 0.158037 -0.242074 8.71545 -0.168137 1.32709 68.7173 -7.03465 0.997517 -1.31237 0.371162 26.4804 -4.76265 -3.92757 -0.36426 2.57994 -0.501672 -0.640128 -0.119596 0.796756 0.00256783 0.498185 4.43983 -1.07674 0.0389846 -0.10884 9.99937 -4.16415 1.60309 -8.24086 -0.128726 -0.857801 0.00090787 -1.00521 3.81425 1.18903 3.37369e-006 -5.33608e-007 -10 
-2.06174 97.5734 -8.87923 0.649601 -2.27706 0.962595 -0.0576566 2.61649 -0.0324506 2.07777 8.84476 -0.963324 -2.77869 0.701228 -4.47489 -6.06474 9.21714 -2.95444 -11.1004 -0.244461 -1.38866 -66.3119 0.710427 -3.18804 0.873973 0.318856 -17.9755 2.09945 2.99336 -0.390492 8.38095 -0.186634 1.11954 68.92 -8.74616 0.629379 -1.33157 0.371955 26.85 -4.60978 -3.40032 -0.483095 1.88727 -0.513981 -0.93168 -0.129118 0.86016 0.00284524 0.478796 3.59022 -1.07563 0.0389813 -0.108833 9.99937 -5.10386 1.36508 -7.17673 -0.151431 -1.00903 0.000873279 0.19804 3.86652 1.11582 1.19692e-005 -5.86969e-006 -10 
-1.06881 97.5342 -8.71472 0.625171 -1.69472 0.433865 -0.0776935 2.61664 -0.0297206 2.09473 8.84805 -0.969369 -2.93246 0.837875 -4.68816 -6.74648 9.75961 -3.11391 -11.7131 -0.295919 -1.2563 -66.5069 -1.18694 -2.5592 0.964938 0.335166 -19.7542 1.04589 5.89075 -0.49335 8.04492 -0.202948 0.911866 69.1232 -10.4764 0.246497 -1.35084 0.372643 27.2213 -4.45187 -2.87107 -0.602322 1.22527 -0.566674 -1.17702 -0.147252 0.980964 0.00339916 0.489125 2.78453 -1.08501 0.0389748 -0.108841 9.99937 -6.0113 1.09421 -6.21213 -0.170988 -1.1393 0.000791111 1.36651 3.93882 1.02906 2.18486e-006 5.01592e-006 -9.99999 
-0.091163 97.5008 -8.54996 0.606674 -1.13989 -0.0826819 -0.0978209 2.61678 -0.0269769 2.11175 8.85137 -0.975448 -2.95298 0.943788 -4.67665 -7.35347 9.76876 -3.12252 -12.3209 -0.350576 -1.12699 -66.6753 -3.08702 -1.96542 1.05531 0.348501 -21.5121 0.00130905 8.75958 -0.540763 7.70889 -0.217113 0.70398 69.3146 -12.2056 -0.142907 -1.37014 0.373188 27.5927 -4.29291 -2.34218 -0.722972 0.624504 -0.705137 -1.3307 -0.182602 1.21641 0.00458939 0.551941 2.06744 -1.1019 0.0389887 -0.108851 9.99938 -6.84516 0.77218 -5.49049 -0.182534 -1.21611 0.000720254 2.45221 4.09785 0.929913 8.29309e-007 -2.13443e-007 -9.99999 
0.848282 97.4765 -8.38457 0.59386 -0.633399 -0.578294 -0.118042 2.61694 -0.0242201 2.12887 8.8547 -0.981557 -2.87791 1.03129 -4.50463 -7.89597 9.39579 -3.03275 -12.9097 -0.406278 -1.00679 -66.8051 -4.97225 -1.43974 1.1417 0.358637 -23.1865 -1.0077 11.5089 -0.528619 7.37431 -0.22922 0.495787 69.4821 -13.914 -0.530902 -1.38933 0.373589 27.9623 -4.13692 -1.81587 -0.845949 0.115817 -0.975726 -1.34787 -0.243964 1.62471 0.00700287 0.689724 1.48246 -1.12067 0.0389843 -0.108842 9.99938 -7.56588 0.384729 -5.15516 -0.181106 -1.20679 0.000722139 3.4083 4.41647 0.820507 1.78268e-005 7.68396e-006 -9.99999 
1.7266 97.4647 -8.2182 0.585965 -0.196091 -1.04425 -0.138344 2.61709 -0.0214502 2.14606 8.85806 -0.987698 -2.74453 1.11343 -4.2362 -8.38589 8.79177 -2.89174 -13.4656 -0.460375 -0.901555 -66.8869 -6.82381 -1.01375 1.22081 0.365664 -24.715 -1.95317 14.0477 -0.458469 7.04271 -0.239375 0.287203 69.6145 -15.5815 -0.909862 -1.40836 0.373909 28.3284 -3.98801 -1.29451 -0.972108 -0.285313 -1.44278 -1.1564 -0.346094 2.30413 0.0119846 0.941794 1.04541 -1.13534 0.0389921 -0.108828 9.99937 -8.13627 -0.0794481 -5.34894 -0.162056 -1.07986 0.000830282 4.18387 4.97169 0.70313 2.04666e-005 2.98821e-006 -9.99999 
2.52087 97.4667 -8.05045 0.581927 0.15121 -1.47177 -0.158757 2.61724 -0.0186675 2.16332 8.86144 -0.99387 -2.59 1.20302 -3.93533 -8.83526 8.10724 -2.74403 -13.9744 -0.509851 -0.81706 -66.9133 -8.62213 -0.717788 1.28927 0.37003 -26.0351 -2.80453 16.2852 -0.337101 6.71559 -0.247641 0.0781368 69.7013 -17.1882 -1.27216 -1.4271 0.374067 28.6894 -3.85013 -0.780328 -1.10221 -0.597613 -2.08456 -0.779113 -0.485272 3.22866 0.020721 1.29942 0.722686 -1.14076 0.0389875 -0.108842 9.99937 -8.57521 -0.666392 -6.29642 -0.119342 -0.795242 0.000909503 4.78155 5.89682 0.569038 1.04786e-005 4.26887e-007 -9.99999 
3.20817 97.4796 -7.88096 0.580241 0.314963 -1.87717 -0.179238 2.6174 -0.0158717 2.18064 8.86485 -1.00007 -2.4514 1.31231 -3.66597 -9.25521 7.49228 -2.63317 -14.4223 -0.551459 -0.758952 -66.8786 -10.3473 -0.58117 1.34373 0.372384 -27.0841 -3.52777 18.1312 -0.175932 6.39444 -0.254148 -0.131504 69.7326 -18.7144 -1.61014 -1.44551 0.374103 29.0433 -3.72731 -0.275578 -1.23692 -0.841809 -2.81765 -0.312817 -0.642096 4.26797 0.0332385 1.71303 0.486151 -1.13469 0.0389862 -0.108839 9.99937 -8.94147 -1.37132 -7.94953 -0.0557508 -0.371406 0.000629538 5.22626 7.18764 0.413021 -1.49256e-006 1.36604e-005 -9.99999 
3.76557 97.5004 -7.70935 0.578815 0.276171 -2.25239 -0.199819 2.61755 -0.0130639 2.19806 8.8683 -1.00631 -2.36569 1.45285 -3.49199 -9.6556 7.09646 -2.60228 -14.7953 -0.581771 -0.732811 -66.7781 -11.9795 -0.63249 1.38087 0.373411 -27.7995 -4.08543 19.4959 0.0105224 6.08073 -0.25904 -0.341814 69.6993 -20.14 -1.91589 -1.46345 0.374062 29.3886 -3.62363 0.217484 -1.37685 -1.0417 -3.55775 0.14625 -0.797138 5.29245 0.0483936 2.12968 0.308199 -1.11873 0.0389698 -0.108835 9.99938 -9.25844 -2.13761 -10.0409 0.0216056 0.144042 -0.000338309 5.49781 8.70367 0.244454 1.47744e-005 5.12264e-006 -9.99999 
